<mxfile host="app.diagrams.net" modified="2022-11-12T09:34:21.123Z" agent="5.0 (Macintosh; Intel Mac OS X 10_15_7) AppleWebKit/537.36 (KHTML, like Gecko) Chrome/107.0.0.0 Safari/537.36" etag="TEGbDR8uz9roGiRYpv-k" version="20.5.3" type="github">
  <diagram id="raPs9a8_ydE1ZOw3tK9Z" name="ページ1">
    <mxGraphModel dx="1306" dy="839" grid="1" gridSize="10" guides="1" tooltips="1" connect="1" arrows="1" fold="1" page="1" pageScale="1" pageWidth="827" pageHeight="1169" math="0" shadow="0">
      <root>
        <mxCell id="0" />
        <mxCell id="1" parent="0" />
        <mxCell id="MYOx7htDqHxQMOWuWk2I-14" value="adapter" style="rounded=0;whiteSpace=wrap;html=1;align=left;" vertex="1" parent="1">
          <mxGeometry x="80" y="350" width="340" height="220" as="geometry" />
        </mxCell>
        <mxCell id="MYOx7htDqHxQMOWuWk2I-17" value="&lt;p style=&quot;line-height: 100%;&quot;&gt;api&lt;/p&gt;" style="rounded=0;whiteSpace=wrap;html=1;align=left;" vertex="1" parent="1">
          <mxGeometry x="160" y="390" width="200" height="150" as="geometry" />
        </mxCell>
        <mxCell id="MYOx7htDqHxQMOWuWk2I-1" value="repository" style="rounded=0;whiteSpace=wrap;html=1;" vertex="1" parent="1">
          <mxGeometry x="200" y="430" width="120" height="60" as="geometry" />
        </mxCell>
        <mxCell id="MYOx7htDqHxQMOWuWk2I-13" style="edgeStyle=orthogonalEdgeStyle;rounded=0;orthogonalLoop=1;jettySize=auto;html=1;entryX=0.5;entryY=0;entryDx=0;entryDy=0;" edge="1" parent="1" source="MYOx7htDqHxQMOWuWk2I-3" target="MYOx7htDqHxQMOWuWk2I-7">
          <mxGeometry relative="1" as="geometry" />
        </mxCell>
        <mxCell id="MYOx7htDqHxQMOWuWk2I-3" value="react" style="rounded=0;whiteSpace=wrap;html=1;" vertex="1" parent="1">
          <mxGeometry x="200" y="60" width="120" height="60" as="geometry" />
        </mxCell>
        <mxCell id="MYOx7htDqHxQMOWuWk2I-4" value="domain" style="rounded=0;whiteSpace=wrap;html=1;" vertex="1" parent="1">
          <mxGeometry x="450" y="220" width="120" height="60" as="geometry" />
        </mxCell>
        <mxCell id="MYOx7htDqHxQMOWuWk2I-15" value="" style="edgeStyle=orthogonalEdgeStyle;rounded=0;orthogonalLoop=1;jettySize=auto;html=1;" edge="1" parent="1" source="MYOx7htDqHxQMOWuWk2I-7" target="MYOx7htDqHxQMOWuWk2I-1">
          <mxGeometry relative="1" as="geometry" />
        </mxCell>
        <mxCell id="MYOx7htDqHxQMOWuWk2I-7" value="usecase" style="rounded=0;whiteSpace=wrap;html=1;" vertex="1" parent="1">
          <mxGeometry x="200" y="220" width="120" height="60" as="geometry" />
        </mxCell>
        <mxCell id="MYOx7htDqHxQMOWuWk2I-19" style="edgeStyle=orthogonalEdgeStyle;rounded=0;orthogonalLoop=1;jettySize=auto;html=1;entryX=0.5;entryY=0;entryDx=0;entryDy=0;" edge="1" parent="1" source="MYOx7htDqHxQMOWuWk2I-18" target="MYOx7htDqHxQMOWuWk2I-4">
          <mxGeometry relative="1" as="geometry" />
        </mxCell>
        <mxCell id="MYOx7htDqHxQMOWuWk2I-18" value="どこからでも依存してOK" style="text;html=1;strokeColor=none;fillColor=none;align=center;verticalAlign=middle;whiteSpace=wrap;rounded=0;" vertex="1" parent="1">
          <mxGeometry x="470" y="140" width="80" height="40" as="geometry" />
        </mxCell>
      </root>
    </mxGraphModel>
  </diagram>
</mxfile>
